HIERARCHY
ROOT SpineBase
{
  OFFSET 0.000000 0.000000 0.000000
  CHANNELS 6 Xposition Yposition Zposition Zrotation Xrotation Yrotation
  JOINT SpineMid
  {
    OFFSET 0.000000 29.930455 0.000000
    CHANNELS 3 Zrotation Xrotation Yrotation
    JOINT SpineShoulder
    {
      OFFSET 0.231008 22.253484 -0.830893
      CHANNELS 3 Zrotation Xrotation Yrotation
      JOINT Neck
      {
        OFFSET 0.171925 7.369252 -0.597339
        CHANNELS 3 Zrotation Xrotation Yrotation
        JOINT Head
        {
          OFFSET 3.330854 11.926243 3.511186
          CHANNELS 3 Zrotation Xrotation Yrotation
          End Site
          {
            OFFSET 0 0 0
          }
        }
      }
      JOINT ShoulderLeft
      {
        OFFSET -4.011423 -4.014392 -12.550331
        CHANNELS 3 Zrotation Xrotation Yrotation
        JOINT ElbowLeft
        {
          OFFSET -1.436378 -22.204461 -7.409171
          CHANNELS 3 Zrotation Xrotation Yrotation
          JOINT WristLeft
          {
            OFFSET 5.205927 -22.336263 -0.104927
            CHANNELS 3 Zrotation Xrotation Yrotation
            JOINT HandLeft
            {
              OFFSET 1.651134 -8.361126 2.448632
              CHANNELS 3 Zrotation Xrotation Yrotation
              JOINT HandTipLeft
              {
                OFFSET 1.515419 -7.125216 0.084241
                CHANNELS 3 Zrotation Xrotation Yrotation
                End Site
                {
                  OFFSET 0 0 0
                }
              }
              JOINT ThumbLeft
              {
                OFFSET 4.284271 -0.870884 -1.354828
                CHANNELS 3 Zrotation Xrotation Yrotation
                End Site
                {
                  OFFSET 0 0 0
                }
              }
            }
          }
        }
      }
      JOINT ShoulderRight
      {
        OFFSET 6.525921 -5.449204 11.902499
        CHANNELS 3 Zrotation Xrotation Yrotation
        JOINT ElbowRight
        {
          OFFSET -8.089815 -28.179582 -12.160648
          CHANNELS 3 Zrotation Xrotation Yrotation
          JOINT WristRight
          {
            OFFSET 9.829554 -19.102755 16.264573
            CHANNELS 3 Zrotation Xrotation Yrotation
            JOINT HandRight
            {
              OFFSET 0.241275 -3.940030 -0.603584
              CHANNELS 3 Zrotation Xrotation Yrotation
              JOINT HandTipRight
              {
                OFFSET 0.305937 -4.219315 0.262798
                CHANNELS 3 Zrotation Xrotation Yrotation
                End Site
                {
                  OFFSET 0 0 0
                }
              }
              JOINT ThumbRight
              {
                OFFSET 0.375468 4.156507 -0.701949
                CHANNELS 3 Zrotation Xrotation Yrotation
                End Site
                {
                  OFFSET 0 0 0
                }
              }
            }
          }
        }
      }
    }
  }
  JOINT HipLeft
  {
    OFFSET -1.726362 1.772804 -8.713121
    CHANNELS 3 Zrotation Xrotation Yrotation
    JOINT KneeLeft
    {
      OFFSET -7.916959 -25.305999 -1.668237
      CHANNELS 3 Zrotation Xrotation Yrotation
      JOINT AnkleLeft
      {
        OFFSET -8.952316 -27.704684 3.595835
        CHANNELS 3 Zrotation Xrotation Yrotation
        JOINT FootLeft
        {
          OFFSET 0.833790 -5.667238 3.763587
          CHANNELS 3 Zrotation Xrotation Yrotation
          End Site
          {
            OFFSET 0 0 0
          }
        }
      }
    }
  }
  JOINT HipRight
  {
    OFFSET 3.594125 0.605378 1.768817
    CHANNELS 3 Zrotation Xrotation Yrotation
    JOINT KneeRight
    {
      OFFSET -6.643432 -31.445169 9.435877
      CHANNELS 3 Zrotation Xrotation Yrotation
      JOINT AnkleRight
      {
        OFFSET -12.308944 -26.464865 2.548510
        CHANNELS 3 Zrotation Xrotation Yrotation
        JOINT FootRight
        {
          OFFSET 4.048088 -4.024274 -4.858374
          CHANNELS 3 Zrotation Xrotation Yrotation
          End Site
          {
            OFFSET 0 0 0
          }
        }
      }
    }
  }
}
MOTION
Frames: 10
Frame Time: 0.033333
-74.186198 62.309999 280.159556 -0.000000 0.000000 -63.088280 -0.000000 0.000000 63.088280 -0.000000 0.000000 0.000000 -0.000000 0.000000 0.000000 0.000000 0.000000 0.000000 -0.000000 0.000000 0.000000 -0.000000 0.000000 0.000000 -0.000000 0.000000 0.000000 -0.000000 0.000000 0.000000 0.000000 0.000000 0.000000 0.000000 0.000000 0.000000 -0.000000 0.000000 0.000000 -0.000000 0.000000 0.000000 -0.000000 0.000000 0.000000 -0.000000 0.000000 0.000000 0.000000 0.000000 0.000000 0.000000 0.000000 0.000000 -0.000000 0.000000 63.088280 -0.000000 0.000000 0.000000 -0.000000 0.000000 0.000000 0.000000 0.000000 0.000000 -0.000000 0.000000 63.088280 -0.000000 0.000000 0.000000 -0.000000 0.000000 0.000000 0.000000 0.000000 0.000000
-74.220149 62.301577 280.130393 -0.072973 0.032373 -62.951083 0.062016 0.050270 62.951076 -0.000000 0.000000 0.000000 -0.000000 0.000000 0.000000 0.000000 0.000000 0.000000 -0.000000 0.000000 0.000000 0.862328 -0.428399 -0.100500 -1.893462 -2.637951 -0.815827 4.618423 2.965865 0.693137 0.000000 0.000000 0.000000 0.000000 0.000000 0.000000 -0.000000 0.000000 0.000000 -0.000000 0.000000 0.000000 -2.231724 1.501772 0.462770 2.806347 16.189079 0.855337 0.000000 0.000000 0.000000 0.000000 0.000000 0.000000 0.062016 0.050270 62.951076 -0.000000 0.000000 0.000000 2.091502 0.350511 1.433270 0.000000 0.000000 0.000000 0.062016 0.050270 62.951076 -0.000000 0.000000 0.000000 -5.430066 -3.455931 3.186375 0.000000 0.000000 0.000000
-74.249957 62.293594 280.107941 -0.146365 0.060511 -62.841806 0.120648 0.102608 62.841775 -0.000000 0.000000 0.000000 -0.000000 0.000000 0.000000 0.000000 0.000000 0.000000 -0.000000 0.000000 0.000000 1.577238 -0.802321 -0.182786 -3.585510 -4.758261 -1.535866 8.409786 5.392396 0.953512 0.000000 0.000000 0.000000 0.000000 0.000000 0.000000 -0.000000 0.000000 0.000000 -0.000000 0.000000 0.000000 -5.689037 4.490094 1.366437 6.777590 33.487858 1.731503 0.000000 0.000000 0.000000 0.000000 0.000000 0.000000 0.120648 0.102608 62.841775 -0.000000 0.000000 0.000000 4.173488 1.017869 2.886433 0.000000 0.000000 0.000000 0.120648 0.102608 62.841775 -0.000000 0.000000 0.000000 -9.610351 -6.399857 5.475621 0.000000 0.000000 0.000000
-74.275623 62.286048 280.092201 -0.220191 0.084420 -62.761019 0.175841 0.157133 62.760941 -0.000000 0.000000 0.000000 -0.000000 0.000000 0.000000 0.000000 0.000000 0.000000 0.811335 -0.250056 -0.253084 1.336917 -0.865044 -0.002056 -5.069224 -6.400772 -2.158880 11.463961 7.265750 0.975917 0.000000 0.000000 0.000000 0.000000 0.000000 0.000000 -0.000000 0.000000 0.000000 -0.000000 0.000000 0.000000 -11.369860 10.393411 3.395604 12.400142 44.834418 2.732740 0.000000 0.000000 0.000000 0.000000 0.000000 0.000000 1.000184 0.587034 62.873522 -0.758461 0.537660 -0.114376 6.202552 2.024132 4.325484 0.000000 0.000000 0.000000 0.175841 0.157133 62.760941 -0.000000 0.000000 0.000000 -12.310705 -8.429518 6.862773 0.000000 0.000000 0.000000
-74.297146 62.278941 280.083173 -0.294464 0.104105 -62.709173 0.227532 0.213955 62.709016 -0.000000 0.000000 0.000000 0.773960 -0.321528 -0.136263 0.000000 0.000000 0.000000 1.039428 -0.366675 -0.320328 1.530199 -1.008577 0.008480 -6.342318 -7.603454 -2.685190 13.847638 8.600960 0.901190 0.000000 0.000000 0.000000 0.000000 0.000000 0.000000 -0.000000 0.000000 0.000000 -0.000000 0.000000 0.000000 -21.064278 21.331867 8.434936 19.198331 44.788994 5.326541 0.000000 0.000000 0.000000 0.000000 0.000000 0.000000 1.278440 0.774550 62.847533 -0.978369 0.679281 -0.141783 8.132201 3.381661 5.714414 0.000000 0.000000 0.000000 0.227532 0.213955 62.709016 -0.000000 0.000000 0.000000 -13.443852 -9.316684 7.411946 0.000000 0.000000 0.000000
-74.314527 62.272271 280.080856 -0.369201 0.119567 -62.686592 0.275648 0.273175 62.686320 -0.000000 0.000000 0.000000 1.019375 -0.403255 -0.184558 0.000000 0.000000 0.000000 1.246351 -0.499796 -0.378947 1.596783 -1.080020 0.022354 -7.405559 -8.398289 -3.115671 15.608251 9.421480 0.825993 0.000000 0.000000 0.000000 0.000000 0.000000 0.000000 -0.000000 0.000000 0.000000 -0.000000 0.000000 0.000000 -36.149117 36.710541 19.658113 24.907466 33.548329 10.617504 0.000000 0.000000 0.000000 0.000000 0.000000 0.000000 1.528874 0.959012 62.845252 -1.182138 0.802116 -0.164132 9.915618 5.091192 7.017995 0.000000 0.000000 0.000000 0.275648 0.273175 62.686320 -0.000000 0.000000 0.000000 -12.988669 -8.978611 7.166333 0.000000 0.000000 0.000000
-74.328464 62.265810 280.086694 -0.451340 0.128341 -62.714010 0.320971 0.342283 62.713557 -0.000000 0.000000 0.000000 1.378092 -0.486000 -0.265384 0.000000 0.000000 0.000000 1.506622 -0.755889 -0.445277 1.510589 -0.881737 0.072289 -8.296720 -8.847724 -3.463826 16.557428 9.405707 0.815243 0.000000 0.000000 0.000000 0.000000 0.000000 0.000000 -0.000000 0.000000 0.000000 -0.000000 0.000000 0.000000 -26.035772 40.336916 15.608452 19.792474 29.939075 8.785629 0.000000 0.000000 0.000000 0.000000 0.000000 0.000000 1.792253 1.147147 62.897240 -1.556509 1.774277 -0.478300 8.782605 2.471504 6.428702 0.000000 0.000000 0.000000 0.320971 0.342283 62.713557 -0.000000 0.000000 0.000000 -6.273825 -4.062659 3.624528 0.000000 0.000000 0.000000
-74.331602 62.264574 280.095021 -0.520917 0.138113 -62.800549 0.360949 0.400184 62.799916 -0.867785 0.162904 -0.072905 2.600892 -0.729813 -0.263786 0.000000 0.000000 0.000000 2.523020 -1.097339 -0.399384 1.315145 -0.817190 0.080324 -8.329750 -8.271157 -3.345356 15.710530 8.773162 0.993140 0.000000 0.000000 0.000000 0.000000 0.000000 0.000000 0.867995 -0.161781 0.075364 -0.000000 0.000000 0.000000 -26.024402 45.856515 17.217133 17.724090 22.284722 8.559072 0.000000 0.000000 0.000000 0.000000 0.000000 0.000000 2.003846 1.305096 63.001609 -1.941938 2.002921 -0.558970 12.238324 6.977509 9.068987 0.000000 0.000000 0.000000 1.189736 -0.108585 62.980093 0.568272 1.687591 -0.482748 -2.296560 -1.932138 1.256571 0.000000 0.000000 0.000000
-74.340869 62.259224 280.111095 -0.601968 0.143270 -62.825811 -0.132781 -0.202642 62.792938 -0.110393 -0.002484 -0.048108 2.994925 -0.834853 -0.315216 0.000000 0.000000 0.000000 2.726973 -1.253798 -0.418281 0.889934 -0.723231 0.096137 -8.757436 -8.076439 -3.555576 15.595600 8.167671 1.199640 0.000000 0.000000 0.000000 0.000000 0.000000 0.000000 0.953514 -0.165075 0.082523 -0.000000 0.000000 0.000000 -27.783003 52.204907 20.227652 16.502093 14.674067 8.621904 0.000000 0.000000 0.000000 0.000000 0.000000 0.000000 2.125590 1.488903 63.018844 -2.227445 2.059196 -0.580844 23.174226 25.903685 16.713553 0.000000 0.000000 0.000000 1.423687 -0.067995 63.060819 0.501880 2.031588 -0.616834 2.371042 0.543168 -1.585669 0.000000 0.000000 0.000000
-74.347746 62.236700 280.141402 -0.676119 0.134615 -62.841186 -0.150009 -0.194842 62.805570 -0.088792 -0.018363 -0.049519 3.219895 -0.867781 -0.349002 0.000000 0.000000 0.000000 2.825993 -1.342936 -0.421319 0.460922 -0.714503 0.088663 -9.341398 -7.826835 -3.829672 15.899393 9.240533 1.631859 0.000000 0.000000 0.000000 0.000000 0.000000 0.000000 1.006995 -0.159336 0.086753 -0.000000 0.000000 0.000000 -26.012149 55.262854 20.039868 14.338644 10.554670 7.756097 0.000000 0.000000 0.000000 0.000000 0.000000 0.000000 2.177702 1.661899 63.015565 -2.494572 2.076362 -0.595688 29.318692 38.631314 19.939952 0.000000 0.000000 0.000000 1.563752 -0.020484 63.107271 0.438990 2.232328 -0.694506 5.925301 2.477250 -3.608520 0.000000 0.000000 0.000000
